<?xml version="1.0" standalone="no"?>
<!DOCTYPE svg PUBLIC "-//W3C//DTD SVG 1.1//EN" "http://www.w3.org/Graphics/SVG/1.1/DTD/svg11.dtd" >
<svg xmlns="http://www.w3.org/2000/svg">
<metadata>Generated by IcoMoon</metadata>
<defs>
<font id="Ext-iOS" horiz-adv-x="1024">
<font-face units-per-em="1024" ascent="960" descent="-64" />
<missing-glyph horiz-adv-x="1024" />
<glyph unicode="&#x20;" horiz-adv-x="512" d="" />
<glyph unicode="&#xe900;" glyph-name="add-icon" d="M512 960c282.77 0 512-229.23 512-512s-229.23-512-512-512c-282.77 0-512 229.23-512 512s229.23 512 512 512zM824.889 476.444h-284.444v284.444h-56.889v-284.444h-284.444v-56.889h284.444v-284.444h56.889v284.444h284.444v56.889z" />
<glyph unicode="&#xe901;" glyph-name="arrow-down" d="M512 173.268l512 497.964-52.973 51.5-459.027-446.439-459.027 446.439-52.973-51.5z" />
<glyph unicode="&#xe902;" glyph-name="arrow-left" d="M243.81 448l486.107-499.81 50.274 51.712-435.81 448.098 435.81 448.098-50.274 51.712z" />
<glyph unicode="&#xe903;" glyph-name="arrow-right" d="M780.19 448l-486.107 499.81-50.274-51.712 435.81-448.098-435.81-448.098 50.274-51.712z" />
<glyph unicode="&#xe904;" glyph-name="arrow-up" d="M512 722.732l-512-497.964 52.973-51.5 459.027 446.439 459.027-446.439 52.973 51.5z" />
<glyph unicode="&#xe905;" glyph-name="back-arrow" d="M816.762 862.476l-97.524 97.524-512-507.099 512-516.901 97.524 97.524-414.476 419.377z" />
<glyph unicode="&#xe906;" glyph-name="calendar-icon" d="M673.684 259.368c44.648 0 80.842 36.194 80.842 80.842s-36.194 80.842-80.842 80.842c-44.648 0-80.842-36.194-80.842-80.842s36.194-80.842 80.842-80.842zM808.421 367.158h53.895v-53.895h-53.895v53.895zM161.684 151.579h53.895v-53.895h-53.895v53.895zM646.737 151.579h53.895v-53.895h-53.895v53.895zM485.053 151.579h53.895v-53.895h-53.895v53.895zM323.368 151.579h53.895v-53.895h-53.895v53.895zM161.684 367.158h53.895v-53.895h-53.895v53.895zM485.053 367.158h53.895v-53.895h-53.895v53.895zM323.368 367.158h53.895v-53.895h-53.895v53.895zM808.421 582.737h53.895v-53.895h-53.895v53.895zM646.737 582.737h53.895v-53.895h-53.895v53.895zM485.053 582.737h53.895v-53.895h-53.895v53.895zM323.368 582.737h53.895v-53.895h-53.895v53.895zM970.105 16.842c0-14.875-12.045-26.947-26.947-26.947h-862.316c-14.902 0-26.947 12.072-26.947 26.947v646.737c0 14.902 12.045 26.947 26.947 26.947h862.316c14.902 0 26.947-12.045 26.947-26.947v-646.737zM80.842 960c-44.625 0-80.842-36.19-80.842-80.842v-862.316c0-44.652 36.217-80.842 80.842-80.842h862.316c44.625 0 80.842 36.19 80.842 80.842v862.316c0 44.652-36.217 80.842-80.842 80.842h-862.316z" />
<glyph unicode="&#xe907;" glyph-name="check-box-checked" d="M0 960v-1024h1024v1024h-1024zM250.528 513.22l241.359-241.359-40.227-40.227-241.359 241.359 40.227 40.227zM773.472 633.9l40.227-40.227-321.812-321.812-40.227 40.227 321.812 321.812z" />
<glyph unicode="&#xe908;" glyph-name="check-box-unchecked" d="M0 960v-1024h1024v1024h-1024zM56.889 903.111h910.222v-910.222h-910.222v910.222z" />
<glyph unicode="&#xe909;" glyph-name="check-circle-checked" d="M0 448c0-282.832 229.23-512 512-512 282.832 0 512 229.23 512 512 0 282.832-229.23 512-512 512-282.832 0-512-229.23-512-512zM250.528 484.776l241.359-241.359-40.227-40.227-241.359 241.359 40.227 40.227zM773.472 605.455l40.227-40.227-321.812-321.812-40.227 40.227 321.812 321.812z" />
<glyph unicode="&#xe90a;" glyph-name="check-cricle-unchecked" d="M1024 448c0 282.77-229.23 512-512 512s-512-229.23-512-512c0-282.77 229.23-512 512-512s512 229.23 512 512zM53.895 448c0 253.005 205.101 458.105 458.105 458.105s458.105-205.101 458.105-458.105c0-253.005-205.101-458.105-458.105-458.105s-458.105 205.101-458.105 458.105z" />
<glyph unicode="&#xe90b;" glyph-name="check" d="M70.765 590.059l407.294-407.294-67.882-67.882-407.294 407.294 67.882 67.882zM953.235 793.706l67.882-67.882-543.058-543.058-67.882 67.882 543.058 543.058z" />
<glyph unicode="&#xe90c;" glyph-name="close-icon-hollow" d="M190.188 769.812c-177.732-177.732-177.732-465.892 0-643.624s465.892-177.732 643.624 0c177.732 177.732 177.732 465.892 0 643.624s-465.892 177.732-643.624 0zM874.039 85.961c-199.949-199.949-524.129-199.949-724.077 0s-199.949 524.129 0 724.077c199.949 199.949 524.129 199.949 724.077 0s199.949-524.129 0-724.077zM753.359 246.867l-201.133 201.133 201.133 201.133-40.227 40.227-201.133-201.133-201.133 201.133-40.227-40.227 201.133-201.133-201.133-201.133 40.227-40.227 201.133 201.133 201.133-201.133z" />
<glyph unicode="&#xe90d;" glyph-name="close-icon" d="M874.039 810.039c199.949-199.949 199.949-524.129 0-724.077s-524.129-199.949-724.077 0c-199.949 199.949-199.949 524.129 0 724.077s524.129 199.949 724.077 0zM753.359 246.867l-201.133 201.133 201.133 201.133-40.227 40.227-201.133-201.133-201.133 201.133-40.227-40.227 201.133-201.133-201.133-201.133 40.227-40.227 201.133 201.133 201.133-201.133 40.227 40.227z" />
<glyph unicode="&#xe90e;" glyph-name="collapse-icon" d="M320 768v-64h64v64h-64zM448 768v-64h64v64h-64zM576 768v-64h64v64h-64zM704 768v-64h64v64h-64zM832 768v-64h64v64h-64zM960 768v-64h64v64h-64zM0 864h256v-256h-256v256zM64 800v-128h128v128h-128zM320 192v-64h64v64h-64zM448 192v-64h64v64h-64zM576 192v-64h64v64h-64zM704 192v-64h64v64h-64zM832 192v-64h64v64h-64zM960 192v-64h64v64h-64zM0 288h256v-256h-256v256zM64 224v-128h128v128h-128z" />
<glyph unicode="&#xe90f;" glyph-name="down-icon" d="M512 903.111c-251.351 0-455.111-203.76-455.111-455.111s203.76-455.111 455.111-455.111c251.351 0 455.111 203.76 455.111 455.111s-203.76 455.111-455.111 455.111zM512-64c-282.77 0-512 229.23-512 512s229.23 512 512 512c282.77 0 512-229.23 512-512s-229.23-512-512-512zM517.891 265.97l281.586 281.586-40.227 40.227-261.472-261.472-261.472 261.472-40.227-40.227 301.699-301.699 20.113 20.113z" />
<glyph unicode="&#xe910;" glyph-name="expand-icon" d="M87.771 667.429h58.514v-58.514h-58.514v58.514zM87.771 550.4h58.514v-58.514h-58.514v58.514zM87.771 433.371h58.514v-58.514h-58.514v58.514zM87.771 316.343h58.514v-58.514h-58.514v58.514zM87.771 199.314h58.514v-58.514h-58.514v58.514zM87.771 82.286h58.514v-58.514h-58.514v58.514zM204.8 82.286h58.514v-58.514h-58.514v58.514zM321.829 82.286h58.514v-58.514h-58.514v58.514zM438.857 82.286h58.514v-58.514h-58.514v58.514zM555.886 82.286h58.514v-58.514h-58.514v58.514zM672.914 82.286h58.514v-58.514h-58.514v58.514zM0 960v-234.057h234.057v234.057h-234.057zM58.514 901.486h117.029v-117.029h-117.029v117.029zM789.943 170.057v-234.057h234.057v234.057h-234.057zM848.457 111.543h117.029v-117.029h-117.029v117.029z" />
<glyph unicode="&#xe911;" glyph-name="eye-icon" d="M203.48 227.137l-0.036-0.036c0 0 29.822-18.396 46.673-27.444 14.095-7.568 43.873-21.655 50.083-24.582l-0.115-0.115c67.61-27.989 139.763-42.037 211.942-42.037 165.415 0 330.831 73.518 441.108 220.554l59.077 78.769c6.958 9.347 6.958 22.187-0.026 31.534l-59.077 78.769c-41.466 55.28-90.766 100.065-144.88 134.551l0.261 0.27c0 0-37.996 22.217-56.686 31.292-14.57 7.074-44.991 18.716-47.047 19.501l0.176 0.176c-62.044 23.053-127.475 34.737-192.958 34.737-165.415 0-330.831-73.518-441.108-220.528l-59.077-78.769c-7.010-9.321-7.010-22.187 0-31.508l59.077-78.769c38.318-51.064 83.343-93.038 132.614-126.366zM236.493 259.9l0.104 0.104c-48.889 31.875-92.58 72.546-128.971 121.042l-50.202 66.954 50.202 66.98c96.361 128.499 243.765 202.148 404.349 202.148 54.351 0 107.1-8.612 156.987-24.76l0.077 0.077c6.255-2.213 36.785-13.092 52.337-20.069 11.937-5.355 44.993-23.795 44.993-23.795l9.202-5.24 0.021 0.021c53.676-32.888 101.508-75.996 140.784-128.356l50.202-66.98-50.202-66.954c-96.361-128.499-243.765-202.174-404.349-202.174-60.764 0-119.581 10.631-174.503 30.703l0.294 0.285c0 0-36.456 14.375-52.936 22.718-15.249 7.72-44.655 25.085-48.389 27.296zM498.872 237.949c116.008 0 210.051 94.043 210.051 210.051s-94.043 210.051-210.051 210.051c-116.008 0-210.051-94.043-210.051-210.051s94.043-210.051 210.051-210.051z" />
<glyph unicode="&#xe912;" glyph-name="filter-arrow-down" d="M481.882 49.062v910.938h60.235v-910.938l196.126 185.224 44.815-42.285-271.059-256-271.059 256 44.815 42.285z" />
<glyph unicode="&#xe913;" glyph-name="filter-arrow-up" d="M481.882 846.938v-910.938h60.235v910.938l196.126-185.224 44.815 42.285-271.059 256-271.059-256 44.815-42.285z" />
<glyph unicode="&#xe914;" glyph-name="folder-icon" d="M950.857 789.333h-534.552c-7.656 0-14.897 3.608-19.505 9.752l-43.886 58.514c-13.8 18.408-35.499 29.257-58.514 29.257h-221.257c-40.399 0-73.143-32.744-73.143-73.143v-731.429c0-40.399 32.744-73.143 73.143-73.143h877.714c40.399 0 73.143 32.744 73.143 73.143v633.905c0 40.399-32.744 73.143-73.143 73.143v0zM73.143 838.095h213.26c15.36 0 29.818-7.217 39.010-19.505l43.91-58.514c9.192-12.288 23.65-19.505 39.010-19.505h542.525c13.483 0 24.381-10.923 24.381-24.381v-73.143h-926.476v170.667c0 13.458 10.898 24.381 24.381 24.381v0zM950.857 57.905h-877.714c-13.483 0-24.381 10.923-24.381 24.381v487.619c0 13.458 10.898 24.381 24.381 24.381h877.714c13.483 0 24.381-10.923 24.381-24.381v-487.619c0-13.458-10.898-24.381-24.381-24.381v0z" />
<glyph unicode="&#xe915;" glyph-name="gear-icon" d="M1024 424.575v46.891l-100.95 16.947c-2.090 21.586-6.248 42.524-11.535 63.002l89.561 50.966-15.923 44.049-101.493-19.016c-9.278 19.162-19.684 37.613-31.7 54.999l67.202 79.155-29.923 35.921-89.666-53.285c-14.983 14.544-31.115 27.855-48.145 39.995l36.715 98.735-40.309 23.446-66.784-81.725c-18.723 8.421-38.157 15.38-58.217 20.959l0.982 106.237-45.825 8.15-35.252-100.448c-10.176 0.752-20.374 1.546-30.738 1.546s-20.562-0.794-30.738-1.546l-35.252 100.448-45.825-8.15 0.982-106.237c-20.060-5.579-39.494-12.538-58.217-20.959l-66.784 81.725-40.309-23.446 36.715-98.735c-17.030-12.162-33.162-25.452-48.145-39.995l-89.666 53.285-29.923-35.921 67.202-79.155c-11.994-17.365-22.422-35.837-31.7-54.999l-101.493 19.016-15.923-44.049 89.561-50.966c-5.287-20.478-9.445-41.416-11.535-63.002l-100.95-16.947v-46.891l100.95-16.947c2.090-21.586 6.248-42.524 11.535-63.002l-89.561-50.966 15.923-44.049 101.493 19.016c9.278-19.162 19.684-37.613 31.7-54.978l-67.202-79.155 29.923-35.921 89.666 53.285c14.983-14.544 31.115-27.855 48.145-39.995l-36.715-98.735 40.309-23.446 66.784 81.725c18.723-8.4 38.157-15.38 58.217-20.959l-0.982-106.237 45.825-8.15 35.252 100.448c10.176-0.752 20.374-1.546 30.738-1.546s20.562 0.794 30.738 1.546l35.252-100.448 45.825 8.15-0.982 106.237c20.060 5.579 39.494 12.538 58.217 20.959l66.784-81.725 40.309 23.446-36.715 98.735c17.030 12.162 33.162 25.452 48.145 39.995l89.666-53.285 29.923 35.921-67.202 79.155c11.994 17.365 22.422 35.837 31.7 54.978l101.493-19.016 15.923 44.049-89.561 50.966c5.287 20.478 9.445 41.416 11.535 63.002l100.95 16.947zM277.022 214.986c-57.653 60.181-93.302 142.283-93.302 233.035 0 95.203 39.097 181.066 101.786 241.937 21.314 20.687 56.295 14.711 71.005-11.242l120.279-212.181c8.735-15.421 8.17-34.562-1.505-49.399l-126.966-194.983c-16.132-24.825-50.861-28.482-71.298-7.167v0zM830.166 366.902c-35.565-145.438-164.37-253.221-318.166-253.221-34.855 0-68.393 5.579-99.905 15.86-28.565 9.341-39.64 44.739-23.069 70.191l143.223 227.581h252.928c29.673 0 52.157-31.073 44.99-60.411v0zM785.177 468.729h-252.928l-135.345 232.575c-14.836 26.183-2.069 60.223 26.496 68.477 28.168 8.15 57.862 12.58 88.6 12.58 153.796 0 282.601-107.804 318.166-253.221 7.167-29.338-15.317-60.411-44.99-60.411v0z" />
<glyph unicode="&#xe916;" glyph-name="help-icon" d="M1024 448c0 282.77-229.23 512-512 512s-512-229.23-512-512c0-282.77 229.23-512 512-512s512 229.23 512 512zM53.895 448c0 253.005 205.101 458.105 458.105 458.105s458.105-205.101 458.105-458.105c0-253.005-205.101-458.105-458.105-458.105s-458.105 205.101-458.105 458.105zM309.895 619.718h61.585c6.159 74.85 58.743 122.223 134.54 122.223 76.271 0 129.803-48.795 129.803-116.065 0-52.111-22.265-84.798-81.956-123.644-66.796-42.636-94.273-82.43-93.799-145.436v-44.531h63.007v35.53c0 52.584 17.528 79.587 79.587 119.381 64.901 41.689 99.958 91.431 99.958 161.543 0 96.642-80.061 169.597-194.231 169.597-122.223 0-193.283-78.166-198.494-178.598v0zM497.493 100.98c31.74 0 54.953 23.687 54.953 55.427 0 32.214-23.213 55.901-54.953 55.901-32.214 0-55.427-23.687-55.427-55.901 0-31.74 23.213-55.427 55.427-55.427v0z" />
<glyph unicode="&#xe917;" glyph-name="leaf-icon" d="M512 960h-378.435v-1024h756.87v651.13l-378.435 372.87zM534.261 893.217l283.826-289.391h-283.826v289.391zM845.913-19.478h-667.826v934.957h311.652v-356.174h356.174v-578.783z" />
<glyph unicode="&#xe918;" glyph-name="left-icon" d="M967.111 448c0-251.351-203.76-455.111-455.111-455.111s-455.111 203.76-455.111 455.111c0 251.351 203.76 455.111 455.111 455.111s455.111-203.76 455.111-455.111zM0 448c0-282.77 229.23-512 512-512s512 229.23 512 512c0 282.77-229.23 512-512 512s-512-229.23-512-512zM329.97 453.891l281.586 281.586 40.227-40.227-261.472-261.472 261.472-261.472-40.227-40.227-301.699 301.699 20.113 20.113z" />
<glyph unicode="&#xe919;" glyph-name="maximize-icon" d="M56.889 448c0-251.351 203.76-455.111 455.111-455.111s455.111 203.76 455.111 455.111c0 251.351-203.76 455.111-455.111 455.111s-455.111-203.76-455.111-455.111zM1024 448c0-282.77-229.23-512-512-512s-512 229.23-512 512c0 282.77 229.23 512 512 512s512-229.23 512-512zM256 618.667v-426.667h426.667l-426.667 426.667zM312.889 248.889v232.107l232-232.107h-232zM768 277.333v426.667h-426.667l426.667-426.667zM711.111 647.111v-232.107l-232 232.107h232z" />
<glyph unicode="&#xe91a;" glyph-name="menu-icon" d="M0 760.889h1024v-56.889h-1024v56.889zM0 476.444h1024v-56.889h-1024v56.889zM0 192h1024v-56.889h-1024v56.889z" />
<glyph unicode="&#xe91b;" glyph-name="minus-icon" d="M56.889 448c0-251.351 203.76-455.111 455.111-455.111s455.111 203.76 455.111 455.111c0 251.351-203.76 455.111-455.111 455.111s-455.111-203.76-455.111-455.111zM1024 448c0-282.77-229.23-512-512-512s-512 229.23-512 512c0 282.77 229.23 512 512 512s512-229.23 512-512zM824.889 476.444h-625.778v-56.889h625.778z" />
<glyph unicode="&#xe91c;" glyph-name="move-icon" d="M0 618.667h1024v-56.889h-1024v56.889zM0 903.111h1024v-56.889h-1024v56.889zM0 334.222h1024v-56.889h-1024v56.889zM0 49.778h1024v-56.889h-1024v56.889z" />
<glyph unicode="&#xe91d;" glyph-name="next-icon" d="M512-7.111c251.351 0 455.111 203.76 455.111 455.111s-203.76 455.111-455.111 455.111c-251.351 0-455.111-203.76-455.111-455.111s203.76-455.111 455.111-455.111zM512 960c282.77 0 512-229.23 512-512s-229.23-512-512-512c-282.77 0-512 229.23-512 512s229.23 512 512 512zM711.517 447.663l-313.295-312.889v625.778l313.295-312.889zM626.521 447.663l-170.667 170.667v-341.333l170.667 170.667z" />
<glyph unicode="&#xe91e;" glyph-name="pin-icon" d="M512.021 43.541c-128.209 200.056-294.724 494.592-294.724 597.912 0 145.199 132.221 263.377 294.724 263.377 162.44 0 294.661-118.178 294.661-263.377 0-103.257-166.578-397.855-294.661-597.912zM512.021 954.922c-190.464 0-344.816-140.309-344.816-313.469 0-173.098 344.816-689.633 344.816-689.633s344.754 516.535 344.754 689.633c0 173.16-154.352 313.469-344.754 313.469zM512.021 503.526c-86.455 0-156.797 61.942-156.797 137.927 0 76.048 70.343 137.989 156.797 137.989 86.392 0 156.735-61.942 156.735-137.989 0-75.985-70.343-137.927-156.735-137.927zM512.021 829.597c-114.291 0-206.89-84.198-206.89-188.144 0-103.821 92.599-188.019 206.89-188.019 114.228 0 206.89 84.198 206.89 188.019 0 103.946-92.662 188.144-206.89 188.144z" />
<glyph unicode="&#xe91f;" glyph-name="plus-icon" d="M56.889 448c0-251.351 203.76-455.111 455.111-455.111s455.111 203.76 455.111 455.111c0 251.351-203.76 455.111-455.111 455.111s-455.111-203.76-455.111-455.111zM1024 448c0-282.77-229.23-512-512-512s-512 229.23-512 512c0 282.77 229.23 512 512 512s512-229.23 512-512zM824.889 476.444h-284.444v284.444h-56.889v-284.444h-284.444v-56.889h284.444v-284.444h56.889v284.444h284.444z" />
<glyph unicode="&#xe920;" glyph-name="previous-icon" d="M512-7.111c-251.351 0-455.111 203.76-455.111 455.111s203.76 455.111 455.111 455.111c251.351 0 455.111-203.76 455.111-455.111s-203.76-455.111-455.111-455.111zM512 960c-282.77 0-512-229.23-512-512s229.23-512 512-512c282.77 0 512 229.23 512 512s-229.23 512-512 512zM312.889 447.663l313.295 312.889v-625.778l-313.295 312.889zM397.885 447.663l170.667-170.667v341.333l-170.667-170.667z" />
<glyph unicode="&#xe921;" glyph-name="print-icon" d="M65.707 760.889c-38.228 0-65.707-20.652-65.707-56.901v-388.255c0-39.289 26.184-66.844 65.646-66.844h133.465v-284.444h625.778v284.444h133.539c37.090 0 65.646 24.975 65.646 61.225v393.874c0 36.25-17.038 56.901-65.646 56.901h-892.721zM768 21.333h-512v455.111h512v-455.111zM853.333 817.778h-682.667v80.955c0 18.131 15.278 32.823 34.133 32.823h614.4c19.577-0.704 34.133-15.125 34.133-32.823v-80.955z" />
<glyph unicode="&#xe922;" glyph-name="radio-button-checked" d="M1024 448c0 282.77-229.23 512-512 512s-512-229.23-512-512c0-282.77 229.23-512 512-512s512 229.23 512 512zM53.895 448c0 253.005 205.101 458.105 458.105 458.105s458.105-205.101 458.105-458.105c0-253.005-205.101-458.105-458.105-458.105s-458.105 205.101-458.105 458.105zM808.421 448c0-163.709-132.712-296.421-296.421-296.421s-296.421 132.712-296.421 296.421c0 163.709 132.712 296.421 296.421 296.421s296.421-132.712 296.421-296.421z" />
<glyph unicode="&#xe923;" glyph-name="radio-button-unchecked" d="M1024 448c0 282.77-229.23 512-512 512s-512-229.23-512-512c0-282.77 229.23-512 512-512s512 229.23 512 512zM53.895 448c0 253.005 205.101 458.105 458.105 458.105s458.105-205.101 458.105-458.105c0-253.005-205.101-458.105-458.105-458.105s-458.105 205.101-458.105 458.105z" />
<glyph unicode="&#xe924;" glyph-name="refresh-icon" d="M939.437 388.465h-89.302c0.548-7.906 1.215-15.789 1.215-23.814 0-187.106-152.243-339.349-339.349-339.349s-339.349 152.243-339.349 339.349c0 187.106 152.243 339.349 339.349 339.349v-184.558l381.023 256-381.023 184.558v-166.698c-236.735 0-428.651-191.917-428.651-428.651s191.917-428.651 428.651-428.651c236.735 0 428.651 191.917 428.651 428.651 0 8.049-0.762 15.884-1.215 23.814v0z" />
<glyph unicode="&#xe925;" glyph-name="remove-icon" d="M512 960c282.77 0 512-229.23 512-512s-229.23-512-512-512c-282.77 0-512 229.23-512 512s229.23 512 512 512zM824.889 476.444h-625.778v-56.889h625.778v56.889z" />
<glyph unicode="&#xe926;" glyph-name="restore-icon" d="M56.889 448c0-251.351 203.76-455.111 455.111-455.111s455.111 203.76 455.111 455.111c0 251.351-203.76 455.111-455.111 455.111s-455.111-203.76-455.111-455.111zM1024 448c0-282.77-229.23-512-512-512s-512 229.23-512 512c0 282.77 229.23 512 512 512s512-229.23 512-512zM512 874.667v-426.667h426.667l-426.667 426.667zM568.889 504.889v232.107l232-232.107h-232zM512 21.333v426.667h-426.667l426.667-426.667zM455.111 391.111v-232.107l-232 232.107h232z" />
<glyph unicode="&#xe927;" glyph-name="right-icon" d="M56.889 448c0-251.351 203.76-455.111 455.111-455.111s455.111 203.76 455.111 455.111c0 251.351-203.76 455.111-455.111 455.111s-455.111-203.76-455.111-455.111zM1024 448c0-282.77-229.23-512-512-512s-512 229.23-512 512c0 282.77 229.23 512 512 512s512-229.23 512-512zM694.030 453.891l-281.586 281.586-40.227-40.227 261.472-261.472-261.472-261.472 40.227-40.227 301.699 301.699-20.113 20.113z" />
<glyph unicode="&#xe928;" glyph-name="row-expander-collapse" d="M256 419.556v56.889h512v-56.889zM0 960v-1024h1024v1024h-1024zM56.889 903.111h910.222v-910.222h-910.222v910.222z" />
<glyph unicode="&#xe929;" glyph-name="row-expander-expand" d="M483.556 419.556h-227.556v56.889h227.556v227.556h56.889v-227.556h227.556v-56.889h-227.556v-227.556h-56.889zM0 960v-1024h1024v1024h-1024zM56.889 903.111h910.222v-910.222h-910.222v910.222z" />
<glyph unicode="&#xe92a;" glyph-name="search-icon" d="M713.331 317.418c50.075 67.719 77.627 145.778 77.627 230.424 0 213.376-172.974 386.33-386.33 386.33-213.376 0-386.33-172.954-386.33-386.33s172.954-386.33 386.33-386.33c84.647 0 162.686 27.531 230.424 77.627l292.371-292.371 78.279 78.279-292.371 292.371zM409.859 880.464c183.097-3.196 329.457-154.757 326.261-337.854s-154.757-329.457-337.854-326.261c-183.097 3.196-329.457 154.757-326.261 337.854s154.757 329.457 337.854 326.261z" />
<glyph unicode="&#xe92b;" glyph-name="spinner-minus" d="M0 504.889v-113.778h1024v113.778z" />
<glyph unicode="&#xe92c;" glyph-name="spinner-plus" d="M455.111 391.111h-455.111v113.778h455.111v455.111h113.778v-455.111h455.111v-113.778h-455.111v-455.111h-113.778v455.111z" />
<glyph unicode="&#xe92d;" glyph-name="spinner" d="M511.98 960c-189.381 0-354.639-102.912-443.195-255.764l34.245-19.791c81.861 141.056 234.457 236.19 408.97 236.19 260.608 0 472.615-212.007 472.615-472.615s-212.007-472.615-472.615-472.615c-260.608 0-472.615 212.007-472.615 472.615 0 12.859 0.67 25.58 1.674 38.183l-39.247 3.19c-1.103-13.647-1.812-27.431-1.812-41.374 0-282.762 229.238-512 512-512s512 229.238 512 512c0 282.762-229.258 511.98-512.020 511.98v0z" />
<glyph unicode="&#xe92e;" glyph-name="toggle-down-icon" d="M56.889 448c0-251.351 203.76-455.111 455.111-455.111s455.111 203.76 455.111 455.111c0 251.351-203.76 455.111-455.111 455.111s-455.111-203.76-455.111-455.111zM1024 448c0-282.77-229.23-512-512-512s-512 229.23-512 512c0 282.77 229.23 512 512 512s512-229.23 512-512zM512 248.146l-312.889 313.295h625.778l-312.889-313.295zM512 333.142l170.667 170.667h-341.333l170.667-170.667z" />
<glyph unicode="&#xe92f;" glyph-name="toggle-up-icon" d="M56.889 448c0 251.351 203.76 455.111 455.111 455.111s455.111-203.76 455.111-455.111c0-251.351-203.76-455.111-455.111-455.111s-455.111 203.76-455.111 455.111zM1024 448c0 282.77-229.23 512-512 512s-512-229.23-512-512c0-282.77 229.23-512 512-512s512 229.23 512 512zM512 647.854l-312.889-313.295h625.778l-312.889 313.295zM512 562.858l170.667-170.667h-341.333l170.667 170.667z" />
<glyph unicode="&#xe930;" glyph-name="unpin-icon" d="M512.021 852.459c-128.209-200.056-294.724-494.592-294.724-597.912 0-145.199 132.221-263.377 294.724-263.377 162.44 0 294.661 118.178 294.661 263.377 0 103.257-166.578 397.855-294.661 597.912zM512.021-58.922c-190.464 0-344.816 140.309-344.816 313.469 0 173.098 344.816 689.633 344.816 689.633s344.754-516.535 344.754-689.633c0-173.16-154.352-313.469-344.754-313.469zM512.021 392.474c-86.455 0-156.797-61.942-156.797-137.927 0-76.048 70.343-137.989 156.797-137.989 86.392 0 156.735 61.942 156.735 137.989 0 75.985-70.343 137.927-156.735 137.927zM512.021 66.403c-114.291 0-206.89 84.198-206.89 188.144 0 103.821 92.599 188.019 206.89 188.019 114.228 0 206.89-84.198 206.89-188.019 0-103.946-92.662-188.144-206.89-188.144z" />
<glyph unicode="&#xe931;" glyph-name="up-icon" d="M512-7.111c-251.351 0-455.111 203.76-455.111 455.111s203.76 455.111 455.111 455.111c251.351 0 455.111-203.76 455.111-455.111s-203.76-455.111-455.111-455.111zM512 960c-282.77 0-512-229.23-512-512s229.23-512 512-512c282.77 0 512 229.23 512 512s-229.23 512-512 512zM517.891 630.030l281.586-281.586-40.227-40.227-261.472 261.472-261.472-261.472-40.227 40.227 301.699 301.699 20.113-20.113z" />
<glyph unicode="&#xe932;" glyph-name="user-icon" d="M0 448c0-282.767 229.233-512 512-512s512 229.233 512 512c0 282.767-229.233 512-512 512s-512-229.233-512-512zM802.875 98.297c-75.232 28.969-134.238 34.173-134.238 34.173-57.403 16.067-43.176 92.566-43.176 139.145 29.444 4.393 27.386 55.187 29.899 77.112 1.484 12.901 2.533 30.037 6.728 41.85 12.209-3.324 24.319-1.88 29.206 12.149 3.661 10.448 3.265 23.883 5.184 34.885 2.157 12.407 4.947 24.695 9.063 36.567 14.623 42.246-16.72 37.161-16.72 37.161 28.553 66.288 12.525 174.129 12.525 174.129-25.763 112.195-180.363 118.744-180.363 118.744-45.274-2.177-51.526-16.76-51.526-16.76-5.56 2.909-16.028 0-16.028 0-46.659-10.923-89.835-56.83-89.835-56.83-57.799-34.964-35.518-141.342-35.518-141.342 0-5.818 10.448-72.125 10.448-72.125-27.168-1.444-15.315-35.697-15.315-35.697 7.658-13.831 20.203-75.766 20.203-75.766 8.35-26.95 32.036-24.042 32.036-24.042-0.554-0.139 4.907-36.429 5.303-39.357 3.047-22.34-0.831-46.144 15.87-63.498 1.524-1.583 12.308-9.359 12.268-10.784 0-37.735 6.965-118.032-36.211-128.223-64.151-15.157-108.277-28.949-147.12-45.056-102.816 83.463-168.668 210.796-168.668 353.265 0 250.944 204.167 455.111 455.111 455.111s455.111-204.167 455.111-455.111c0-140.412-63.953-266.161-164.236-349.703v0z" />
<glyph unicode="&#xe933;" glyph-name="group-icon" horiz-adv-x="1235" d="M736.19 833.801c2.982 0.934 5.903 2.018 8.915 2.68 0 0 4.518 1.175 9.096 1.175 2.289 0 4.638-0.271 6.415-1.175 0 0 6.084 13.342 49.905 15.36 0 0 149.655-6.024 174.592-108.815 0 0 9.728-95.081-12.137-159.563 0 0 1.536 0.301 3.735 0.301 7.59 0 23.371-3.464 12.439-34.364-3.855-10.903-6.656-22.136-8.764-33.491-1.867-10.089-1.506-22.377-5-31.955-3.403-9.216-10.391-12.499-18.432-12.499-3.162 0-6.505 0.512-9.848 1.355-4.066-10.812-5.060-26.504-6.505-38.34-1.777-14.607-1.205-43.249-11.746-59.302-3.945-5.993-10.029-12.047-17.8-13.161 0-42.677-13.192-110.984 42.376-125.711 0 0 76.89-13.192 158.298-44.454 15.691-6.024 33.672-31.172 34.846-77.252h-242.206c9.246-6.536 17.8-13.854 24.275-23.401 7.529-11.053 11.204-23.883 13.794-36.834h265.969l-1.596 61.801c-2.018 77.252-39.273 118.814-73.487 131.945-71.59 27.437-139.234 41.773-161.852 46.11-1.897 8.252-1.656 24.004-1.205 36.201 3.192 3.614 6.204 7.499 8.945 11.716 16.866 25.66 19.064 56.44 20.51 76.8 0.090 1.506 0.211 2.952 0.301 4.337 14.336 8.975 25.54 22.679 31.864 39.846 4.939 13.402 6.114 26.022 6.987 35.208 0.241 2.289 0.361 4.548 0.753 6.626 1.656 9.126 3.735 17.077 6.325 24.395 13.523 38.249 5.421 64.482-4.728 80.414 10.872 64.422 4.728 130.47 3.825 139.384l-0.422 4.096-0.964 3.976c-28.16 116.013-158.268 151.913-230.731 154.805l-2.59 0.12-2.59-0.12c-29.184-1.355-50.507-7.108-66.048-14.968-4.427-0.602-8.072-1.355-10.451-1.958-11.294-2.56-22.829-6.776-34.424-11.987 12.92-15.812 28.732-29.304 38.731-47.345 0.392-0.663 0.331-1.295 0.632-1.958zM495.402 960l-2.59-0.12c-35.147-1.596-59.964-8.614-77.493-17.95-5.963-0.663-10.872-1.687-13.824-2.409-60.386-13.734-112.309-58.248-129.717-74.541-89.871-58.458-70.355-186.97-64.723-215.492 0.723-6.807 2.47-19.185 6.475-44.213-0.783-1.024-1.506-2.078-2.229-3.162-22.829-34.485-11.083-74.15-6.927-85.504l1.837-5.060 1.807-3.102c3.704-9.126 11.927-40.568 17.98-68.849l0.663-3.132 0.994-3.042c7.56-23.070 22.106-41.623 40.84-53.579l1.084-7.469c0.663-4.638 0.873-9.397 1.175-14.125 1.355-21.926 3.554-58.187 31.955-88.395 0.211-18.161-0.12-46.050-4.457-59.362-80.926-18.613-158.81-43.58-210.974-61.018-18.944-6.325-81.167-35.93-85.143-151.221l-2.138-62.313h969.246l-1.596 61.801c-2.289 88.004-43.52 134.867-81.348 149.384-94.268 36.171-182.844 53.489-201.788 56.952-1.295 0.452-1.807 0.813-1.807 0.813-6.475 7.439-5.512 42.376-4.728 61.38 4.728 4.819 9.065 10.24 12.981 16.233 18.733 28.521 21.263 64.090 22.92 87.642 0.301 4.066 0.542 7.77 0.904 10.842l0.211 1.837c17.769 9.276 31.654 24.937 39.123 45.207 5.451 14.758 6.746 28.612 7.8 39.725 0.301 3.223 0.512 6.385 1.054 9.306 2.199 11.896 4.909 22.317 8.312 31.925 12.619 35.659 10.421 65.867-6.475 89.781-0.271 0.361-0.542 0.753-0.813 1.114 14.306 78.637 6.596 161.641 5.481 172.604l-0.422 4.066-0.964 4.006c-32.587 134.295-185.103 175.917-270.095 179.351l-2.59 0.090zM495.583 899.704c0 0 183.386-7.379 213.956-133.361 0 0 11.927-116.495-14.848-195.524 0 0 1.837 0.331 4.548 0.331 9.306 0 28.642-4.216 15.27-42.074-4.728-13.372-8.192-27.136-10.752-41.050-2.289-12.348-1.837-27.437-6.144-39.183-4.156-11.294-12.74-15.33-22.588-15.33-3.885 0-7.951 0.632-12.047 1.687-4.969-13.252-6.234-32.497-7.981-46.984-2.168-17.92-1.476-52.977-14.396-72.674-4.819-7.349-12.318-14.758-21.835-16.113 0-52.314-16.143-136.041 51.953-154.052 0 0 94.208-16.203 193.988-54.483 19.245-7.409 41.261-38.219 42.737-94.72h-845.101c2.199 63.849 26.413 90.293 44.032 96.166 52.826 17.649 131.464 42.918 213.233 61.229 51.23 11.445 42.948 101.617 42.948 143.992 0.030 1.596-12.74 10.33-14.547 12.107-19.787 19.516-15.209 46.231-18.824 71.319-0.482 3.313-6.295 44.213-6.295 44.213s-0.873-0.12-2.379-0.12c-7.017 0-27.467 2.229-35.599 27.106 0 0-14.878 69.542-23.974 85.082 0 0-14.035 38.46 18.191 40.087 0 0-12.408 74.451-12.408 80.986 0 0-26.443 119.477 42.135 158.72 0 0 51.23 51.561 106.586 63.849 0 0 5.481 1.446 11.113 1.446 2.831 0 5.662-0.361 7.861-1.446 0 0 7.439 16.354 61.169 18.793v0z" />
<glyph unicode="&#xe934;" glyph-name="error" d="M1024 448c0 282.77-229.23 512-512 512s-512-229.23-512-512c0-282.77 229.23-512 512-512s512 229.23 512 512zM53.895 448c0 253.005 205.101 458.105 458.105 458.105s458.105-205.101 458.105-458.105c0-253.005-205.101-458.105-458.105-458.105s-458.105 205.101-458.105 458.105zM469.368 781.211l5.684-456.632h73.895l5.684 456.632h-85.263zM512 92.947c30.789 0 54 23.684 54 54 0 30.789-23.211 54-54 54-30.316 0-54-23.211-54-54 0-30.316 23.684-54 54-54z" />
<glyph unicode="&#xe935;" glyph-name="columns" d="M995.556-64h-995.556v1024h1024v-1024h-28.444zM967.111-7.111v910.222h-256v-910.222h256zM654.222-7.111v910.222h-284.444v-910.222h284.444zM312.889-7.111v910.222h-256v-910.222h256z" />
<glyph unicode="&#xe936;" glyph-name="group-by-this" horiz-adv-x="1052" d="M691.892-8.649h284.897c10.803 0 19.536 11.922 19.536 26.611v638.669c0 14.716-8.732 26.611-19.536 26.611h-625.145c-10.803 0-19.536-11.895-19.536-26.611v-638.669c0-14.689 8.732-26.611 19.536-26.611h284.897v193.73h-304.432v55.351h304.432v193.73h-304.432v55.351h304.432v193.73h55.351v-193.73h304.432v-55.351h-304.432v-193.73h304.432v-55.351h-304.432v-193.73zM337.935 960h652.563c33.77 0 61.178-36.19 61.178-80.842v-862.316c0-44.652-27.408-80.842-61.178-80.842h-652.563c-33.77 0-61.178 36.19-61.178 80.842v862.316c0 44.652 27.408 80.842 61.178 80.842zM55.351 627.892h55.351v-55.351h-55.351v55.351zM55.351 849.297h55.351v-55.351h-55.351v55.351zM166.054 849.297h55.351v-55.351h-55.351v55.351zM110.703 461.838h55.351v-55.351h-55.351v-55.351h-55.351v55.351h-55.351v55.351h55.351v55.351h55.351v-55.351zM55.351 738.595h55.351v-55.351h-55.351v55.351zM55.351 295.784h55.351v-55.351h-55.351v55.351zM55.351 185.081h55.351v-55.351h-55.351v55.351zM55.351 74.378h55.351v-55.351h-55.351v55.351zM166.054 74.378h55.351v-55.351h-55.351v55.351z" />
</font>
</defs>
</svg>
